<svg width="84" height="22" viewBox="0 0 84 22" fill="none" xmlns="http://www.w3.org/2000/svg">
<path d="M8.92969 9.1875H7.51172C6.91016 9.1875 6.47656 9.03516 6.21094 8.73047C5.94531 8.41797 5.8125 8.00781 5.8125 7.5C5.8125 6.375 6.65234 5.8125 8.33203 5.8125C9.91016 5.8125 11.0977 6.04688 11.8945 6.51562L11.2148 7.03125C10.668 6.78125 9.70703 6.65625 8.33203 6.65625C7.66016 6.65625 7.20703 6.73047 6.97266 6.87891C6.74609 7.02734 6.63281 7.23438 6.63281 7.5C6.63281 7.76562 6.69531 7.97266 6.82031 8.12109C6.94531 8.26953 7.17578 8.34375 7.51172 8.34375H8.96484C10.0195 8.34375 10.9688 8.52344 11.8125 8.88281C12.6641 9.24219 13.3633 9.73438 13.9102 10.3594C14.457 10.9766 14.875 11.6914 15.1641 12.5039C15.4531 13.3086 15.5977 14.1719 15.5977 15.0938C15.5977 15.8438 15.4922 16.5547 15.2812 17.2266C15.0703 17.8984 14.75 18.5156 14.3203 19.0781C13.8984 19.6406 13.3867 20.1289 12.7852 20.543C12.1914 20.9492 11.4805 21.2656 10.6523 21.4922C9.83203 21.7266 8.94141 21.8438 7.98047 21.8438C6.47266 21.8438 5.05859 21.6133 3.73828 21.1523C2.42578 20.6992 1.33203 20.0625 0.457031 19.2422L1.13672 18.7383C1.93359 19.457 2.92969 20.0156 4.125 20.4141C5.32812 20.8047 6.61328 21 7.98047 21C9.05078 21 10.0156 20.8477 10.875 20.543C11.7422 20.2305 12.4531 19.8047 13.0078 19.2656C13.5703 18.7266 14 18.1016 14.2969 17.3906C14.6016 16.6797 14.7539 15.9141 14.7539 15.0938C14.7539 14.0078 14.5352 13.0273 14.0977 12.1523C13.6602 11.2695 12.9922 10.5547 12.0938 10.0078C11.2031 9.46094 10.1484 9.1875 8.92969 9.1875ZM7.51172 10.0312H8.84766C10.4336 10.0312 11.6719 10.5156 12.5625 11.4844C13.4609 12.4531 13.9102 13.6562 13.9102 15.0938C13.9102 16.5547 13.3906 17.7656 12.3516 18.7266C11.3125 19.6797 9.85547 20.1562 7.98047 20.1562C6.73047 20.1562 5.5625 19.9844 4.47656 19.6406C3.39062 19.2969 2.48828 18.8125 1.76953 18.1875L2.42578 17.6602C3.06641 18.1836 3.87109 18.5898 4.83984 18.8789C5.81641 19.168 6.86328 19.3125 7.98047 19.3125C9.62891 19.3125 10.8867 18.918 11.7539 18.1289C12.6289 17.3398 13.0664 16.3281 13.0664 15.0938C13.0664 13.875 12.6992 12.8672 11.9648 12.0703C11.2383 11.2734 10.1953 10.875 8.83594 10.875H7.51172C6.37109 10.875 5.51562 10.5625 4.94531 9.9375C4.375 9.3125 4.08984 8.5 4.08984 7.5C4.08984 6.5 4.44141 5.6875 5.14453 5.0625C5.85547 4.4375 6.91797 4.125 8.33203 4.125C9.32422 4.125 10.2461 4.24219 11.0977 4.47656C11.9492 4.70312 12.6523 5.03125 13.207 5.46094L12.5391 5.97656C11.5625 5.30469 10.1602 4.96875 8.33203 4.96875C7.15234 4.96875 6.28906 5.20312 5.74219 5.67188C5.20312 6.13281 4.93359 6.74219 4.93359 7.5C4.93359 8.26562 5.13281 8.87891 5.53125 9.33984C5.9375 9.80078 6.59766 10.0312 7.51172 10.0312ZM7.51172 11.7188H8.80078C9.94141 11.7188 10.7969 12.0352 11.3672 12.668C11.9375 13.3008 12.2227 14.1094 12.2227 15.0938C12.2227 16.0938 11.8672 16.9062 11.1562 17.5312C10.4531 18.1562 9.39453 18.4688 7.98047 18.4688C6.98828 18.4688 6.0625 18.3555 5.20312 18.1289C4.35156 17.8945 3.64844 17.5625 3.09375 17.1328L3.76172 16.6172C4.73828 17.2891 6.14453 17.625 7.98047 17.625C9.16016 17.625 10.0195 17.3945 10.5586 16.9336C11.1055 16.4648 11.3789 15.8516 11.3789 15.0938C11.3789 14.3359 11.1758 13.7266 10.7695 13.2656C10.3633 12.7969 9.70312 12.5625 8.78906 12.5625H7.51172C5.91016 12.5625 4.65625 12.0859 3.75 11.1328C2.85156 10.1719 2.40234 8.96094 2.40234 7.5C2.40234 6.03906 2.92188 4.83203 3.96094 3.87891C5 2.91797 6.45703 2.4375 8.33203 2.4375C9.58203 2.4375 10.7461 2.60938 11.8242 2.95312C12.9102 3.29688 13.8125 3.78125 14.5312 4.40625L13.875 4.93359C13.2344 4.41016 12.4297 4.00391 11.4609 3.71484C10.4922 3.42578 9.44922 3.28125 8.33203 3.28125C6.68359 3.28125 5.42188 3.67578 4.54688 4.46484C3.67969 5.25391 3.24609 6.26562 3.24609 7.5C3.24609 8.72656 3.61328 9.73828 4.34766 10.5352C5.08203 11.3242 6.13672 11.7188 7.51172 11.7188ZM7.51172 13.4062H8.80078C9.40234 13.4062 9.83594 13.5625 10.1016 13.875C10.3672 14.1875 10.5 14.5938 10.5 15.0938C10.5 16.2188 9.66016 16.7812 7.98047 16.7812C6.39453 16.7812 5.20312 16.5469 4.40625 16.0781L5.08594 15.5625C5.63281 15.8125 6.59766 15.9375 7.98047 15.9375C8.65234 15.9375 9.10156 15.8633 9.32812 15.7148C9.5625 15.5664 9.67969 15.3594 9.67969 15.0938C9.67969 14.8359 9.61328 14.6328 9.48047 14.4844C9.35547 14.3281 9.12109 14.25 8.77734 14.25H7.51172C6.43359 14.25 5.45703 14.0742 4.58203 13.7227C3.71484 13.3711 3 12.8867 2.4375 12.2695C1.88281 11.6523 1.45703 10.9375 1.16016 10.125C0.863281 9.3125 0.714844 8.4375 0.714844 7.5C0.714844 6.75 0.820312 6.03906 1.03125 5.36719C1.24219 4.69531 1.55859 4.07812 1.98047 3.51562C2.41016 2.95312 2.92188 2.46875 3.51562 2.0625C4.11719 1.64844 4.82812 1.32812 5.64844 1.10156C6.47656 0.867188 7.37109 0.75 8.33203 0.75C9.83984 0.75 11.25 0.980469 12.5625 1.44141C13.875 1.89453 14.9688 2.53125 15.8438 3.35156L15.1641 3.85547C14.3672 3.13672 13.3711 2.58203 12.1758 2.19141C10.9805 1.79297 9.69922 1.59375 8.33203 1.59375C7.26172 1.59375 6.29297 1.75 5.42578 2.0625C4.56641 2.36719 3.85547 2.78906 3.29297 3.32812C2.73828 3.86719 2.30859 4.49219 2.00391 5.20312C1.70703 5.91406 1.55859 6.67969 1.55859 7.5C1.55859 8.60156 1.78125 9.59375 2.22656 10.4766C2.67188 11.3594 3.35156 12.0703 4.26562 12.6094C5.17969 13.1406 6.26172 13.4062 7.51172 13.4062ZM17.0977 2.4375V1.59375H29.7539V2.4375H17.0977ZM17.0977 4.125V3.28125H29.7539V4.125H17.0977ZM17.0977 5.8125V4.96875H29.7539V5.8125H26.3789V21H25.5352V5.8125H24.6914V21H23.8477V5.8125H23.0039V21H22.1602V5.8125H21.3164V21H20.4727V5.8125H17.0977ZM36.7383 1.59375H37.582V21H36.7383V1.59375ZM35.0508 1.59375H35.8945V21H35.0508V1.59375ZM33.3633 1.59375H34.207V21H33.3633V1.59375ZM31.6758 1.59375H32.5195V21H31.6758V1.59375ZM39.8086 1.59375H40.6523V21H39.8086V1.59375ZM44.8711 1.59375H45.7148V16.7812H52.4648V17.625H45.7148V18.4688H52.4648V19.3125H45.7148V20.1562H52.4648V21H44.8711V1.59375ZM43.1836 1.59375H44.0273V21H43.1836V1.59375ZM41.4961 1.59375H42.3398V21H41.4961V1.59375ZM54.3398 1.59375H55.1836V21H54.3398V1.59375ZM59.4023 1.59375H60.2461V16.7812H66.9961V17.625H60.2461V18.4688H66.9961V19.3125H60.2461V20.1562H66.9961V21H59.4023V1.59375ZM57.7148 1.59375H58.5586V21H57.7148V1.59375ZM56.0273 1.59375H56.8711V21H56.0273V1.59375ZM76.7109 9.1875H75.293C74.6914 9.1875 74.2578 9.03516 73.9922 8.73047C73.7266 8.41797 73.5938 8.00781 73.5938 7.5C73.5938 6.375 74.4336 5.8125 76.1133 5.8125C77.6914 5.8125 78.8789 6.04688 79.6758 6.51562L78.9961 7.03125C78.4492 6.78125 77.4883 6.65625 76.1133 6.65625C75.4414 6.65625 74.9883 6.73047 74.7539 6.87891C74.5273 7.02734 74.4141 7.23438 74.4141 7.5C74.4141 7.76562 74.4766 7.97266 74.6016 8.12109C74.7266 8.26953 74.957 8.34375 75.293 8.34375H76.7461C77.8008 8.34375 78.75 8.52344 79.5938 8.88281C80.4453 9.24219 81.1445 9.73438 81.6914 10.3594C82.2383 10.9766 82.6562 11.6914 82.9453 12.5039C83.2344 13.3086 83.3789 14.1719 83.3789 15.0938C83.3789 15.8438 83.2734 16.5547 83.0625 17.2266C82.8516 17.8984 82.5312 18.5156 82.1016 19.0781C81.6797 19.6406 81.168 20.1289 80.5664 20.543C79.9727 20.9492 79.2617 21.2656 78.4336 21.4922C77.6133 21.7266 76.7227 21.8438 75.7617 21.8438C74.2539 21.8438 72.8398 21.6133 71.5195 21.1523C70.207 20.6992 69.1133 20.0625 68.2383 19.2422L68.918 18.7383C69.7148 19.457 70.7109 20.0156 71.9062 20.4141C73.1094 20.8047 74.3945 21 75.7617 21C76.832 21 77.7969 20.8477 78.6562 20.543C79.5234 20.2305 80.2344 19.8047 80.7891 19.2656C81.3516 18.7266 81.7812 18.1016 82.0781 17.3906C82.3828 16.6797 82.5352 15.9141 82.5352 15.0938C82.5352 14.0078 82.3164 13.0273 81.8789 12.1523C81.4414 11.2695 80.7734 10.5547 79.875 10.0078C78.9844 9.46094 77.9297 9.1875 76.7109 9.1875ZM75.293 10.0312H76.6289C78.2148 10.0312 79.4531 10.5156 80.3438 11.4844C81.2422 12.4531 81.6914 13.6562 81.6914 15.0938C81.6914 16.5547 81.1719 17.7656 80.1328 18.7266C79.0938 19.6797 77.6367 20.1562 75.7617 20.1562C74.5117 20.1562 73.3438 19.9844 72.2578 19.6406C71.1719 19.2969 70.2695 18.8125 69.5508 18.1875L70.207 17.6602C70.8477 18.1836 71.6523 18.5898 72.6211 18.8789C73.5977 19.168 74.6445 19.3125 75.7617 19.3125C77.4102 19.3125 78.668 18.918 79.5352 18.1289C80.4102 17.3398 80.8477 16.3281 80.8477 15.0938C80.8477 13.875 80.4805 12.8672 79.7461 12.0703C79.0195 11.2734 77.9766 10.875 76.6172 10.875H75.293C74.1523 10.875 73.2969 10.5625 72.7266 9.9375C72.1562 9.3125 71.8711 8.5 71.8711 7.5C71.8711 6.5 72.2227 5.6875 72.9258 5.0625C73.6367 4.4375 74.6992 4.125 76.1133 4.125C77.1055 4.125 78.0273 4.24219 78.8789 4.47656C79.7305 4.70312 80.4336 5.03125 80.9883 5.46094L80.3203 5.97656C79.3438 5.30469 77.9414 4.96875 76.1133 4.96875C74.9336 4.96875 74.0703 5.20312 73.5234 5.67188C72.9844 6.13281 72.7148 6.74219 72.7148 7.5C72.7148 8.26562 72.9141 8.87891 73.3125 9.33984C73.7188 9.80078 74.3789 10.0312 75.293 10.0312ZM75.293 11.7188H76.582C77.7227 11.7188 78.5781 12.0352 79.1484 12.668C79.7188 13.3008 80.0039 14.1094 80.0039 15.0938C80.0039 16.0938 79.6484 16.9062 78.9375 17.5312C78.2344 18.1562 77.1758 18.4688 75.7617 18.4688C74.7695 18.4688 73.8438 18.3555 72.9844 18.1289C72.1328 17.8945 71.4297 17.5625 70.875 17.1328L71.543 16.6172C72.5195 17.2891 73.9258 17.625 75.7617 17.625C76.9414 17.625 77.8008 17.3945 78.3398 16.9336C78.8867 16.4648 79.1602 15.8516 79.1602 15.0938C79.1602 14.3359 78.957 13.7266 78.5508 13.2656C78.1445 12.7969 77.4844 12.5625 76.5703 12.5625H75.293C73.6914 12.5625 72.4375 12.0859 71.5312 11.1328C70.6328 10.1719 70.1836 8.96094 70.1836 7.5C70.1836 6.03906 70.7031 4.83203 71.7422 3.87891C72.7812 2.91797 74.2383 2.4375 76.1133 2.4375C77.3633 2.4375 78.5273 2.60938 79.6055 2.95312C80.6914 3.29688 81.5938 3.78125 82.3125 4.40625L81.6562 4.93359C81.0156 4.41016 80.2109 4.00391 79.2422 3.71484C78.2734 3.42578 77.2305 3.28125 76.1133 3.28125C74.4648 3.28125 73.2031 3.67578 72.3281 4.46484C71.4609 5.25391 71.0273 6.26562 71.0273 7.5C71.0273 8.72656 71.3945 9.73828 72.1289 10.5352C72.8633 11.3242 73.918 11.7188 75.293 11.7188ZM75.293 13.4062H76.582C77.1836 13.4062 77.6172 13.5625 77.8828 13.875C78.1484 14.1875 78.2812 14.5938 78.2812 15.0938C78.2812 16.2188 77.4414 16.7812 75.7617 16.7812C74.1758 16.7812 72.9844 16.5469 72.1875 16.0781L72.8672 15.5625C73.4141 15.8125 74.3789 15.9375 75.7617 15.9375C76.4336 15.9375 76.8828 15.8633 77.1094 15.7148C77.3438 15.5664 77.4609 15.3594 77.4609 15.0938C77.4609 14.8359 77.3945 14.6328 77.2617 14.4844C77.1367 14.3281 76.9023 14.25 76.5586 14.25H75.293C74.2148 14.25 73.2383 14.0742 72.3633 13.7227C71.4961 13.3711 70.7812 12.8867 70.2188 12.2695C69.6641 11.6523 69.2383 10.9375 68.9414 10.125C68.6445 9.3125 68.4961 8.4375 68.4961 7.5C68.4961 6.75 68.6016 6.03906 68.8125 5.36719C69.0234 4.69531 69.3398 4.07812 69.7617 3.51562C70.1914 2.95312 70.7031 2.46875 71.2969 2.0625C71.8984 1.64844 72.6094 1.32812 73.4297 1.10156C74.2578 0.867188 75.1523 0.75 76.1133 0.75C77.6211 0.75 79.0312 0.980469 80.3438 1.44141C81.6562 1.89453 82.75 2.53125 83.625 3.35156L82.9453 3.85547C82.1484 3.13672 81.1523 2.58203 79.957 2.19141C78.7617 1.79297 77.4805 1.59375 76.1133 1.59375C75.043 1.59375 74.0742 1.75 73.207 2.0625C72.3477 2.36719 71.6367 2.78906 71.0742 3.32812C70.5195 3.86719 70.0898 4.49219 69.7852 5.20312C69.4883 5.91406 69.3398 6.67969 69.3398 7.5C69.3398 8.60156 69.5625 9.59375 70.0078 10.4766C70.4531 11.3594 71.1328 12.0703 72.0469 12.6094C72.9609 13.1406 74.043 13.4062 75.293 13.4062Z" fill="white"/>
</svg>
