<svg width="875" height="320" viewBox="0 0 875 320" fill="none" xmlns="http://www.w3.org/2000/svg">
<path d="M46.2812 68H33.9688L14.0938 33.4375H13.8125C14.2083 39.375 14.4062 43.7292 14.4062 46.5V68H5.75V22.3125H17.9688L37.8125 56.5312H38.0312C37.7188 50.5938 37.5625 46.3958 37.5625 43.9375V22.3125H46.2812V68ZM84.125 30.25H67.5V40.2812H82.9375V48.2188H67.5V60H84.125V68H57.8125V22.3125H84.125V30.25ZM138.188 68H127.156L120.969 44C120.719 43.0208 120.323 41.2604 119.781 38.7188C119.219 35.8229 118.896 34.0208 118.812 33.3125C118.708 34.2917 118.396 36.1146 117.875 38.7812C117.354 41.4479 116.979 43.2083 116.75 44.0625L110.594 68H99.5938L87.9375 22.3125H97.4688L103.312 47.25C104.292 51.5833 105.031 55.5729 105.531 59.2188C105.656 58.0104 105.948 56.125 106.406 53.5625C106.885 50.9792 107.302 49.0938 107.656 47.9062L114.312 22.3125H123.469L130.125 47.9062C130.458 49.2396 130.833 51.0729 131.25 53.4062C131.688 55.7396 132.01 57.6771 132.219 59.2188C132.49 57.2188 132.844 55.0521 133.281 52.7188C133.74 50.3854 134.135 48.5625 134.469 47.25L140.281 22.3125H149.812L138.188 68ZM163.688 60.5625L164.156 61.2812C163.052 65.5521 161.219 70.5417 158.656 76.25H151.781C153.135 70.6458 154.188 65.4167 154.938 60.5625H163.688ZM187.906 56.875C191.073 58.2708 193.708 59.25 195.812 59.8125C197.938 60.3542 199.969 60.625 201.906 60.625C203.865 60.625 205.406 60.2188 206.531 59.4062C207.656 58.5938 208.219 57.3854 208.219 55.7812C208.219 54.8854 207.979 54.1042 207.5 53.4375C207.021 52.75 206.281 52.0729 205.281 51.4062C204.302 50.7188 202.365 49.6979 199.469 48.3438C196.573 46.9688 194.438 45.6875 193.062 44.5C190 41.8542 188.469 38.5417 188.469 34.5625C188.469 30.5833 189.833 27.4375 192.562 25.125C195.312 22.8125 199.104 21.6562 203.938 21.6562C208 21.6562 212.521 22.7292 217.5 24.875L214.375 32.4062C212.021 31.4479 210.031 30.7604 208.406 30.3438C206.781 29.9271 205.125 29.7188 203.438 29.7188C201.771 29.7188 200.438 30.1458 199.438 31C198.438 31.8333 197.938 32.9479 197.938 34.3438C197.938 35.1979 198.125 35.9479 198.5 36.5938C198.896 37.2188 199.521 37.8333 200.375 38.4375C201.25 39.0208 203.312 40.0833 206.562 41.625C210.812 43.6458 213.729 45.6979 215.312 47.7812C216.917 49.7812 217.719 52.2917 217.719 55.3125C217.719 59.3958 216.229 62.6562 213.25 65.0938C210.271 67.4479 206.24 68.625 201.156 68.625C196.073 68.625 191.656 67.7083 187.906 65.875V56.875ZM226 22.3125H240.594C246.156 22.3125 250.375 23.5104 253.25 25.9062C256.125 28.3021 257.562 31.9167 257.562 36.75C257.562 41.5625 256.021 45.2708 252.938 47.875C249.854 50.4583 245.49 51.75 239.844 51.75H235.688V68H226V22.3125ZM235.688 30.25V43.8125H238.875C244.812 43.8125 247.781 41.5208 247.781 36.9375C247.781 34.6458 247.156 32.9583 245.906 31.875C244.677 30.7917 242.74 30.25 240.094 30.25H235.688ZM292.5 30.25H275.875V40.2812H291.312V48.2188H275.875V60H292.5V68H266.188V22.3125H292.5V30.25ZM320.531 68.625C313.885 68.625 308.802 66.6146 305.281 62.5938C301.76 58.5729 300 52.7812 300 45.2188C300 45.1146 300 45.0104 300 44.9062C300 40.3229 300.865 36.2604 302.594 32.7188C304.323 29.1562 306.792 26.4271 310 24.5312C313.208 22.6146 316.885 21.6562 321.031 21.6562C321.177 21.6562 321.312 21.6562 321.438 21.6562C325.917 21.6562 330.375 22.7292 334.812 24.875L331.688 32.75C327.458 30.7292 324.042 29.7188 321.438 29.7188C317.792 29.7188 314.969 31.0938 312.969 33.8438C310.969 36.5729 309.969 40.3854 309.969 45.2812C309.969 55.4688 313.792 60.5625 321.438 60.5625C324.625 60.5625 328.51 59.7604 333.094 58.1562V66.2812C329.344 67.8438 325.156 68.625 320.531 68.625ZM352.562 68H342.875V22.3125H352.562V68ZM402.469 68H392.031L388.688 57.125H372.062L368.75 68H358.312L374.438 22.125H386.281L402.469 68ZM386.406 49L381.219 32.2812C380.823 30.9062 380.552 29.8854 380.406 29.2188C379.719 31.8646 377.75 38.4583 374.5 49H386.406ZM417.938 60H436.469V68H408.25V22.3125H417.938V60Z" fill="white"/>
<path d="M417.038 118.306H406.6L403.256 107.431H386.631L383.319 118.306H372.881L389.006 72.4314H400.85L417.038 118.306ZM400.975 99.3064L395.788 82.5876C395.392 81.2126 395.121 80.1918 394.975 79.5251C394.288 82.1709 392.319 88.7647 389.069 99.3064H400.975ZM463.35 118.306H451.038L431.163 83.7439H430.881C431.277 89.6814 431.475 94.0355 431.475 96.8064V118.306H422.819V72.6189H435.038L454.881 106.838H455.1C454.788 100.9 454.631 96.7022 454.631 94.2439V72.6189H463.35V118.306ZM474.881 72.6189H489.225C496.683 72.6189 502.475 74.5876 506.6 78.5251C510.725 82.4626 512.788 87.9626 512.788 95.0251C512.788 102.546 510.642 108.306 506.35 112.306C502.079 116.306 495.902 118.306 487.819 118.306H474.881V72.6189ZM484.569 80.5564V110.306H488.725C498.058 110.306 502.725 105.296 502.725 95.2751C502.725 85.4626 498.392 80.5564 489.725 80.5564H484.569Z" fill="white"/>
<path d="M182.094 201.997H166.438L161.422 185.684H136.484L131.516 201.997H115.859L140.047 133.184H157.813L182.094 201.997ZM158 173.497L150.219 148.419C149.625 146.356 149.219 144.825 149 143.825C147.969 147.794 145.016 157.684 140.141 173.497H158ZM190.766 133.465H212.281C223.469 133.465 232.156 136.419 238.344 142.325C244.531 148.231 247.625 156.481 247.625 167.075C247.625 178.356 244.406 186.997 237.969 192.997C231.563 198.997 222.297 201.997 210.172 201.997H190.766V133.465ZM205.297 145.372V189.997H211.531C225.531 189.997 232.531 182.481 232.531 167.45C232.531 152.731 226.031 145.372 213.031 145.372H205.297ZM261.828 133.465H283.344C294.531 133.465 303.219 136.419 309.406 142.325C315.594 148.231 318.688 156.481 318.688 167.075C318.688 178.356 315.469 186.997 309.031 192.997C302.625 198.997 293.359 201.997 281.234 201.997H261.828V133.465ZM276.359 145.372V189.997H282.594C296.594 189.997 303.594 182.481 303.594 167.45C303.594 152.731 297.094 145.372 284.094 145.372H276.359ZM347.422 201.997H332.891V133.465H347.422V201.997ZM409.719 145.559H391.109V201.997H376.578V145.559H357.969V133.465H409.719V145.559ZM434.797 201.997H420.266V133.465H434.797V201.997ZM457.438 193.794C451.813 187.7 449 178.95 449 167.544C449 156.137 451.813 147.434 457.438 141.434C463.094 135.403 471.172 132.387 481.672 132.387C492.203 132.387 500.266 135.419 505.859 141.481C511.453 147.544 514.25 156.262 514.25 167.637C514.25 178.981 511.438 187.7 505.813 193.794C500.188 199.887 492.125 202.934 481.625 202.934C471.125 202.934 463.063 199.887 457.438 193.794ZM481.719 144.481C475.938 144.481 471.578 146.434 468.641 150.34C465.703 154.215 464.234 159.981 464.234 167.637C464.234 183.044 470.031 190.747 481.625 190.747C493.219 190.747 499.016 183.044 499.016 167.637C499.016 152.2 493.25 144.481 481.719 144.481ZM589.25 201.997H570.781L540.969 150.153H540.547C541.141 159.059 541.438 165.59 541.438 169.747V201.997H528.453V133.465H546.781L576.547 184.794H576.875C576.406 175.887 576.172 169.59 576.172 165.903V133.465H589.25V201.997ZM664.156 201.997H648.5L643.484 185.684H618.547L613.578 201.997H597.922L622.109 133.184H639.875L664.156 201.997ZM640.063 173.497L632.281 148.419C631.688 146.356 631.281 144.825 631.063 143.825C630.031 147.794 627.078 157.684 622.203 173.497H640.063ZM687.359 189.997H715.156V201.997H672.828V133.465H687.359V189.997Z" fill="white"/>
<path d="M182.094 201.997H166.438L161.422 185.684H136.484L131.516 201.997H115.859L140.047 133.184H157.813L182.094 201.997ZM158 173.497L150.219 148.419C149.625 146.356 149.219 144.825 149 143.825C147.969 147.794 145.016 157.684 140.141 173.497H158ZM190.766 133.465H212.281C223.469 133.465 232.156 136.419 238.344 142.325C244.531 148.231 247.625 156.481 247.625 167.075C247.625 178.356 244.406 186.997 237.969 192.997C231.563 198.997 222.297 201.997 210.172 201.997H190.766V133.465ZM205.297 145.372V189.997H211.531C225.531 189.997 232.531 182.481 232.531 167.45C232.531 152.731 226.031 145.372 213.031 145.372H205.297ZM261.828 133.465H283.344C294.531 133.465 303.219 136.419 309.406 142.325C315.594 148.231 318.688 156.481 318.688 167.075C318.688 178.356 315.469 186.997 309.031 192.997C302.625 198.997 293.359 201.997 281.234 201.997H261.828V133.465ZM276.359 145.372V189.997H282.594C296.594 189.997 303.594 182.481 303.594 167.45C303.594 152.731 297.094 145.372 284.094 145.372H276.359ZM347.422 201.997H332.891V133.465H347.422V201.997ZM409.719 145.559H391.109V201.997H376.578V145.559H357.969V133.465H409.719V145.559ZM434.797 201.997H420.266V133.465H434.797V201.997ZM457.438 193.794C451.813 187.7 449 178.95 449 167.544C449 156.137 451.813 147.434 457.438 141.434C463.094 135.403 471.172 132.387 481.672 132.387C492.203 132.387 500.266 135.419 505.859 141.481C511.453 147.544 514.25 156.262 514.25 167.637C514.25 178.981 511.438 187.7 505.813 193.794C500.188 199.887 492.125 202.934 481.625 202.934C471.125 202.934 463.063 199.887 457.438 193.794ZM481.719 144.481C475.938 144.481 471.578 146.434 468.641 150.34C465.703 154.215 464.234 159.981 464.234 167.637C464.234 183.044 470.031 190.747 481.625 190.747C493.219 190.747 499.016 183.044 499.016 167.637C499.016 152.2 493.25 144.481 481.719 144.481ZM589.25 201.997H570.781L540.969 150.153H540.547C541.141 159.059 541.438 165.59 541.438 169.747V201.997H528.453V133.465H546.781L576.547 184.794H576.875C576.406 175.887 576.172 169.59 576.172 165.903V133.465H589.25V201.997ZM664.156 201.997H648.5L643.484 185.684H618.547L613.578 201.997H597.922L622.109 133.184H639.875L664.156 201.997ZM640.063 173.497L632.281 148.419C631.688 146.356 631.281 144.825 631.063 143.825C630.031 147.794 627.078 157.684 622.203 173.497H640.063ZM687.359 189.997H715.156V201.997H672.828V133.465H687.359V189.997Z" fill="white"/>
</svg>
